<svg xmlns="http://www.w3.org/2000/svg" xmlns:xlink="http://www.w3.org/1999/xlink" viewBox="0 0 791.08 288.29">
  <defs>
    <style>
      .a {
        fill: #ff1dd4;
      }

      .b, .j {
        fill: none;
        stroke-miterlimit: 10;
      }

      .b {
        stroke: #00fff8;
        stroke-width: 26px;
      }

      .c {
        fill: #151515;
      }

      .d {
        fill: url(#a);
      }

      .e {
        fill: url(#b);
      }

      .f {
        fill: url(#c);
      }

      .g {
        fill: url(#d);
      }

      .h {
        fill: url(#e);
      }

      .i {
        fill: url(#f);
      }

      .j {
        stroke: #00edff;
        stroke-width: 2px;
      }
    </style>
    <linearGradient id="a" x1="516.97" y1="536.5" x2="516.97" y2="355.5" gradientTransform="matrix(1, 0, -0.16, 1, -239.53, -337.64)" gradientUnits="userSpaceOnUse">
      <stop offset="0" stop-color="#fff"/>
      <stop offset="1"/>
    </linearGradient>
    <linearGradient id="b" x1="516.97" y1="442.25" x2="516.97" y2="355.5" gradientTransform="matrix(1, 0, -0.16, 1, -239.53, -337.64)" gradientUnits="userSpaceOnUse">
      <stop offset="0" stop-color="#fff"/>
      <stop offset="1" stop-color="#001194"/>
    </linearGradient>
    <linearGradient id="c" x1="677.22" y1="537" x2="677.22" y2="356.5" xlink:href="#a"/>
    <linearGradient id="d" x1="677.22" x2="677.22" y2="356.5" xlink:href="#b"/>
    <linearGradient id="e" x1="858.97" x2="858.97" y2="355.5" xlink:href="#a"/>
    <linearGradient id="f" x1="858.97" x2="858.97" xlink:href="#b"/>
  </defs>
  <title>logo</title>
  <g>
    <path class="a" d="M727,500.21a1,1,0,0,0,.16-.58C727,499.89,727,500.07,727,500.21Z" transform="translate(-141.12 -337.64)"/>
    <path class="a" d="M607.88,522.75l1.33-.54C608.31,522.43,608,522.6,607.88,522.75Z" transform="translate(-141.12 -337.64)"/>
    <path class="a" d="M798.21,485.49a.64.64,0,0,0-.14.16l5-1Z" transform="translate(-141.12 -337.64)"/>
    <path class="a" d="M393.92,555.14a.78.78,0,0,0,.23.25C394.06,555.28,394.17,555.15,393.92,555.14Z" transform="translate(-141.12 -337.64)"/>
    <path class="a" d="M504.48,542.17a7.09,7.09,0,0,1-1.94.74C503.51,542.76,504.28,542.57,504.48,542.17Z" transform="translate(-141.12 -337.64)"/>
    <path class="a" d="M838.18,487.86l-2.19-.28C836.1,487.89,836.89,488.06,838.18,487.86Z" transform="translate(-141.12 -337.64)"/>
    <path class="a" d="M909.29,468a.68.68,0,0,0-.23-.12C909,468,909.1,468,909.29,468Z" transform="translate(-141.12 -337.64)"/>
    <path class="a" d="M880.54,471.66c-.59.2-1.26.5-1.94.79C879.45,472.23,880.54,472,880.54,471.66Z" transform="translate(-141.12 -337.64)"/>
    <path class="a" d="M877.68,472.86l.92-.41C878.07,472.6,877.64,472.74,877.68,472.86Z" transform="translate(-141.12 -337.64)"/>
    <path class="a" d="M150.77,484.22a21.72,21.72,0,0,0-5,3.27Z" transform="translate(-141.12 -337.64)"/>
    <path class="a" d="M568,472.77l-.28.48C568,473,568.06,472.84,568,472.77Z" transform="translate(-141.12 -337.64)"/>
    <path class="a" d="M151,491.35l-1.44.46A6.42,6.42,0,0,0,151,491.35Z" transform="translate(-141.12 -337.64)"/>
    <path class="a" d="M800.56,498.63c-1.91,1.21-6.37,1.32-6.17,2C796.56,500,799.8,499.86,800.56,498.63Z" transform="translate(-141.12 -337.64)"/>
    <path class="a" d="M599.44,425.36l1.21-.69A12.35,12.35,0,0,0,599.44,425.36Z" transform="translate(-141.12 -337.64)"/>
    <path class="a" d="M151,491.35l1.67-.53a3.06,3.06,0,0,0-.63-.13A5.25,5.25,0,0,1,151,491.35Z" transform="translate(-141.12 -337.64)"/>
    <path class="a" d="M592.67,341.83h.09l.5-.17Z" transform="translate(-141.12 -337.64)"/>
    <path class="a" d="M579.21,341.88l2.82-.55A7.53,7.53,0,0,0,579.21,341.88Z" transform="translate(-141.12 -337.64)"/>
    <path class="a" d="M145.8,487.49,143,489.37A18.54,18.54,0,0,0,145.8,487.49Z" transform="translate(-141.12 -337.64)"/>
    <path class="a" d="M440.64,372.58c.43-.14.83-.29,1.22-.44A5.65,5.65,0,0,0,440.64,372.58Z" transform="translate(-141.12 -337.64)"/>
    <path class="a" d="M514.2,540.79c.32,0,.76,0,1.14,0C515.43,540.54,515.33,540.44,514.2,540.79Z" transform="translate(-141.12 -337.64)"/>
    <path class="a" d="M422.34,576.37h0v0Z" transform="translate(-141.12 -337.64)"/>
    <path class="a" d="M427.36,574.75a12.14,12.14,0,0,0-5,1.62A13.42,13.42,0,0,0,427.36,574.75Z" transform="translate(-141.12 -337.64)"/>
    <path class="a" d="M411.19,577.39l.62,0A4.37,4.37,0,0,0,411.19,577.39Z" transform="translate(-141.12 -337.64)"/>
    <path class="a" d="M514.29,562.12s0-.06,0-.08,0,.05,0,.08Z" transform="translate(-141.12 -337.64)"/>
    <path class="a" d="M494.07,566a6,6,0,0,0-1.46-.07A5,5,0,0,0,494.07,566Z" transform="translate(-141.12 -337.64)"/>
    <path class="a" d="M347.62,573.83h0l-.08-.07Z" transform="translate(-141.12 -337.64)"/>
    <path class="a" d="M513.62,464.54C496.25,473,474,484.7,456.25,492.26c-3.18,3.13-8.73,5.71-14.18,8.57l-1.44-1.59-4.4,2.74c-2.16.31,3.43-2-.25-1.16l-1.23,2c-.68-.5-12.2,5.09-5,.14q-9.07,4.18-18.16,8.46c-4,1.85-1.62,2.65-6.27,4.31-1.16-.1,1.42-1.13.74-1.62a38.49,38.49,0,0,0-13.67,8.11l-2.47,2.11-.34.28L389,525l-1.25.83c-.84.56-1.71,1.11-2.61,1.68-3.58,2.25-7.65,4.57-13.08,7.38l1.5-1.17c-.76.59-1.75,1.26-2.8,1.94s-2.1,1.39-3.09,2a17.07,17.07,0,0,0-3.27,2.35c2.55-.34,3-1,3.83-1.92s2.12-2.3,5.91-3.71c1.12,1.33-6.51,4.82-4.5,5.22a27.53,27.53,0,0,0-3.13,1.67,22.9,22.9,0,0,0-2.16,1.6c-.65.52-1.15,1-1.75,1.56s-1.21,1.06-1.9,1.62a34.57,34.57,0,0,0-8.44,6.36c-2.17,2.18-3.78,4.16-5.51,5.64a16.93,16.93,0,0,0,.16,2.81,13,13,0,0,1-.05,1.93c-.07.77-.31,1.66-.5,2.88a13.88,13.88,0,0,1-.85,1.69.42.42,0,0,1-.43.2c-.11,0-.2,0-.25.43a6.53,6.53,0,0,0,.4,2.59q.68.27,1.38.48a15.63,15.63,0,0,0,1.22,1.8,2.76,2.76,0,0,1,.42.7c0,.26-.27.22-.57.27a7.34,7.34,0,0,0,3.43,1.89,14,14,0,0,1,4,1.89,34.49,34.49,0,0,1-3.57-.6c1.72.76,2.95,1.24,4.34,1.82a39.48,39.48,0,0,0,6,1.95,3.65,3.65,0,0,1-2.16,0,11.35,11.35,0,0,1-2.45-.87c.47,1.09,2.08,1.37,3.74,1.38a30.18,30.18,0,0,1,4.34,0c-.17-.44-4.2-1.48-.84-1.93a23,23,0,0,0,5.58.21c2,0,3.72-.09,4.42.56-.87.15-1.69.26-2.55.39s-1.72.24-2.55.33a54,54,0,0,0,7.1-.58,65.15,65.15,0,0,1,7.46-.12c-.59.11-.51.35-.89.58a65.57,65.57,0,0,1,11.22-1.21l6.38-.28c1.12-.06,2.27-.13,3.45-.22l3.17-.26-.57.2c-.15.06-.56.15-.83.23l.7-.15.43-.13.77-.27c.49-.19.92-.38,1.31-.56a6.65,6.65,0,0,1,2.12-.68c-3.58-.16-2.65-.57-3.08-1.5,4.83,1.12,6.84-2.72,14.47-2.75-.05.59-1.77,1.53-3.92,1.19-2.36,2-2.49,3.5-7,4.85,2.83-.73,6.17-1.4,5.55-.6l.7-1.68c1.72-.27,3.11-.35,4.41-.53.61-1.09-3.71-1.16.21-2.34,4.44-1.12,2.62,1.28,3.22.48,6.12-1.49,2.33-2,8.36-2.38a6.3,6.3,0,0,1-2.23.58c4.37,0,10.44-1.83,12-.14-.57.52-.6,1.11-2.25,1.19l0-.3c-4.49,2.09,3.86-1,2.65,1-.48-1,5.55-1.66,8.28-1.91l-1-1c8.42-4.9-.12,2.37,8.69.47,5.5-1.71-2.19,0,1.13-1.35,3.84-.43,5.43.36,10.9-1.09,1.63.19,4.89.26,5.38,1.5,3.29-1.1,10.36-1.22,12.05-2.83-6-.05-5.51,2.38-12.55,1.88l1.68-1.58c4.67-.75,10.53-2.45,13.82-2.57-.69-.13-1-.4-.68-.75,6.55-1.67,8.23-3.28,14.74-4.09,1.06,1-2.75,1.49-5.48,2.1,4.33.15,4.36-.73,10.87-1.56.53.94-4.35.75-4.91,1.87l7.08-1.65c0,.06,0,.12,0,.2.72-1.87,5.47-.88,9.74-2.22,10.32-2,11.46-4.54,16.91-7,1.62.15,2.16.49,1.59,1-2.68-.25-2.11.25-2.91.86,3.45-.86,7.94.14,6.13,1.2,5.44-1.57-2.16-.49,1.11-1.68l7.59-1.39c-1.06-.68-3.76-.33,0-1.77,3.25-.9,4.88-1,9.2-1.86-.54.55,1.63,1-1.62,1.63,2.15-.09,5.41-.71,6.5-1.8-4.88.18,7.59-2.31,3.8-2.92l4.88-.19c-1.08.21-1.09.8-2.71,1,1.61,1,3.78-1.16,5.41-1.62,1.71-.09,6-.86,6.5-.43,1.42-.67,5.12-1.14,5.94-.62,2.17-.71,0-.88.56-1.43l7.56-1.46c.55.64,1.6,2.5.52,3,2.71-1.27.57-2.33,4.9-3.17-2.19,1.91,5.92-.12,2.68,2.29,2.68.51,9.72-1,13.51-2.2,2.17-1.62-4.32.26-4.31-.93,10.8-2.71,10.8-6,18.9-7.13l-2.14.12c4.85-1.7,4.32-1.44,7-3-1.08,1.69,6.47,2.56,14.58.49.54-.86-4.86-.35-3.77-1.76l5.39-1.38c.42,0-.13.39-.79.72,4.76-1.55,9.45-.14,10.5-2.09l5.39,1-2.15-.45c.53-.85,5.94-2.24,7-2.76,5.4-2,7.55-1.84,10.8-1.62-1.1-.36-3.8-1.14.53-2.32.45,2.28,9.37-1.18,9.5,0,1.77-.42,5.06-.41,5.06-1.4v1.48c0-2.06,6.45-3.4,11.3-4.85-.52,2.93,5.38-1.41,8.11.54.52-2,8.6-2.68,9.12-4.43,3.79-.94,3.79.84,4.88,1.2l1.62-1.07c2.11.42,9.27-1.05,13.64-1.43l3.58-2.49,1.63.4c.54-.55,3.76-1.53,1.59-1.67l2.15-.39c-.22-1.79,2.88-1.16,7-2.88,1,.06.89.54,0,1,2.13-.46,1.42.64,2.72,1-1.61-.1,6.95-4.88,1-4.37-.56-.62,2.67-1.9,4.83-2.07l1.63,1.29,2.13-2.23c3.23-1,4.85-.29,7.54-.72-2.68.72-5.34,4.41,1.66,2.77-3.63,1-5.24,2.33-7.07,3.1,1.46-.27,2.22-.29.11.9,5.37-1.74,1.61-1.39,7-2.82,0,1.47,1.65,1.58,6.49,1l-3.78-.23a1.61,1.61,0,0,1,.59-.53c-1.37.15-1.8,0-2.21-.46,1.07-.23,5.88-3.18,7-2.53-6-.95,9.12-3.88,5.33-4.41.53-.55,4.29-1.5,4.84-.88-4.28,2.1,3.78.82,3.27,2,1.6-.8-3.8-.23-1.64-1.29a17.79,17.79,0,0,1,6.46-.2l-1.06.52,4.31-.33c.53-.86-4.31-.26-.55-1.51,1.07.06,4.84-1.19,4.85-.6-1.61,1.39,0,2.36-3.2,3.36,2.69-.73,11.3-2.89,7.5-3.4l3.25-.7c-2.17-.12-8.11.12-1.65-1.57v.29l4.27-2.11,2.14.27c-.15-.34.49-.84,2.17-1.2.54.32,2.15.12,2.16.72,4.84-1.2,4.28-1.83,4.82-2.38,2.69-.73,3.78-.67,2.7.45,3.77-.68,10.22-2.37,12.93-2.22,4.83-1.79-1.09-.06,1.59-1.69,4.88,1.46,16.68-2.89,24.72-5.11-2.71-1.63,2.16-.76,3.19-3.07-1.59,1.09,8.1-.14,1.13,2.13l4.29-1.24c3.24.48-7,2.57-2.1,3.13,4.84-1.21,7.48-4.31,13.39-4.87-1.56,2,4.29-1.54,3.26.47-1.06.83-2.69,1-4.29,1.54l1.08.06c10.76-2.07,2.66-2.52,8-4.88,6.45-1.73,5.41,0,6,.61a18.78,18.78,0,0,0,5.9-1.75c-3.74,1.87-7.55.78-6-.61,3.27,1.06,9.67-2.14,11.27-3.24-9.7.36-6.44,1.43-15.62,1.52-1.07.83-.5,2.34-5.88,2.93,3.1-1.54-.42-.81-1.41-.85,1.22.66-3.54,1.23-5,2-1.63-.39,2.64-2.81-2.74-1.92l-.5,2.34c-2.15.17.52-1.75-3.78-.21,2.13-1.66-1.11-1.54,4.78-3.28-7.54-.12-10.71,3.54-16.06,5.61.53-.27.53-.56,1-.84-1,.84-3.21,1.31-4.81,1.81-3.77.38,2.67-1.63,1.58-2l-5.9,1.44c-.14,0-.18-.07-.19-.12-1.49.66-2.92,1.19-3.59.8a37.23,37.23,0,0,0,3.19-2.78l-5.88,2.92c.52-.86-5.4,0-1.1-1.54l-9.13,2.44-1.11-1.24c-2.14.76-2.14,1.06.54.62-3.22.4-13.37,5.73-12.36,2.54-7,2.85-9.66,3-18.24,5.73,6.42-2.86-8.09.12-1.11-2.13-4.31.34-4.83,2.08-8.06,3.08-3.22.1-2.17-1.61,1-2.9L818.11,482v-.3l-3.22,1.59c-3.78.07-1.09-1.25-4.86-.59l-.52,1.45-2.69-.16c1.08.36-1.07,1.12-3.75,1.84v-.29l-3.23,1c3.08-1.51-3.06.42-1.77-.83-2.83.59-2.89.62-7.91,2l1.09.65c-6.45,2.27-.57-1.21-6-.06l.56.91c-8.09.1-12.89,3.94-18.83,4.16,3.22-1,2.13-1.94,2.13-1.64-4.83,1.48-12.91,3-17.73,5.38-2.18-1-2.71-1.35-8.09-.82-3.78.95-4.31,1.21-5.37,2.32-3.8.27-10.53,2.65-10.94,1.65-.67,1-3.35.57-5.22,1.73l-.53-.34.54.93c-7-.77-10.75,3.71-17.78,3.24l1.08-.52-2.69,1c-.53-.34.54-.86.54-1.45L690,507.47l2.7.19c-2.69.7-4.31,2.07-7.55,2.14,4.84-2.62-4.3.88-5.38-.08l2.68-1c-3.76.92-3.76.92-3.23,1.85-4.83,1.42-3.78-1.16-8.07.9l3.23-.65c1.08.36-1.06,1.69-3.22,2.13-.54,0-2.16-.15-.55-.63-3.78,1.22-9.69,2-11.31,2.74-2.16.14-1.62-.72-.55-1.23-8.07,2.67-3.77.62-11.87,3.28l0-.6-2.7,1.29-4.31-.32,1.61.41c-2.69.69-4.31,1.45-7.55,1.8l1.1-1.1c-7.56,2.09-9.16.48-16.19,3.2-.53,0,.54-.55,1.1-.81-6.48,2.75-5.42-.41-11.88,2.62.36-.37-.45-.56-.24-.85l-3,1.19v-1.18L602.73,525l-2.15-.76-1.09.79c-3.75-1.48-8.08,1.13-12.93.43l1.07,1.27c-10.81,5.33-26.43,3.7-39.93,7.8l0-1.18-5.43,2.46c-3.23-.29,1.65-1.33.58-1.72-6,1.82-2.21,2.17-9.23,3.88-3.77,0,1.1-1.07,2.73-1.82-6.52,1.87-16.2,4.38-21,4.64-.08.17-.33.42-.07.44-4.34,1.36-10.28,1.94-15.15,2.91,0-.54,1.22-.85,2.42-1.18-1.77.26-4.24.34-5.64,1.15l1.66-1.32c-3.78.49-10.84,2.7-11.88,1.69.53.36.49,1.25-2.75,1.78-2.1-1.43-8.69,2.3-14.05,2.25.55-.52,4.34-1.27,3.27-1.11-2.69,0-4.88,1.21-7.08,2.14l.58-.82-12,3c-2.07-1.44-11.38,2.09-10.76.68-4.33.61,3.75.2-1.69,1.26-1.56-.51-4.89,1.11-4.83-.07l.56-.22-3.8.66,2.24-1.47c-3.25.73-5.5,2.2-5.54,3.08-3.21-.17-7.56.95-9.12.12l1.12-.43a45,45,0,0,1-11.51.34,39.91,39.91,0,0,0-5,0c-.41,0-.82.08-1.23.14l-.61.1-.3,0a.92.92,0,0,0-.23.06,2.58,2.58,0,0,0-.59.55.27.27,0,0,1,.16-.45l-1.21.05c.19-.31.36-.61.51-.91a13.89,13.89,0,0,1-2.61,1.55l.49-.63a10.52,10.52,0,0,0-2.29.09c-1,.1-2.11.24-3.19.26l.84-.28c-1.88.43-2.13.16-2-.12s.12-.29,0-.42-.39-.23-.91-.44a3.37,3.37,0,0,1,.74-.07,1.05,1.05,0,0,1,.27-1c.47,0,.94-.09,1.43-.14-1.54.06.07-.61,1.38-.92s2.51-.49,1.13-.29a8.29,8.29,0,0,1-1.53-.24,9.59,9.59,0,0,0-1.64-.31,2.15,2.15,0,0,1,1.51-.41,7.81,7.81,0,0,0,1.82-.07c.38-.19.19-.36.18-.56s.17-.45,1-.61l.69.29c.27-.26.12-.66.77-1.09,0,.1,0,.2,0,.3a.58.58,0,0,1,.49-.57,1.85,1.85,0,0,1,.71,0h.08l.31-.11a6.44,6.44,0,0,0,.61-.24,6.81,6.81,0,0,0,1.19-.63,8.84,8.84,0,0,0,2.38-2.32c2.54-.74,6.86-3.24,7.15-2.09,6.68-4.07,12-7,18.89-10.69,1.93,1.2,1.46-.82,6.2-1.81l-.74-.78c9.95-4.75,22.53-7.71,33.47-13.11l.73.79,1.76-2c12.17-5,27.85-11.62,37.42-16,2.92-1.92,7.16-5.2,12.29-7.15l-.47.37a276.61,276.61,0,0,1,27.06-13c-.41.67.66.5-.28,1.25,1.76-2.07,5.5-2.66,7.54-3.59l-2.7.43c2.27-2.14,6.51-3.13,8.19-3.11l3.76-3c.33,0,.83-.11,1,0l.52-.85,2.83.13c.93-.75,6.37-3.78,7.54-5.79.61.2,4.7-1.42,1.76.29q7.78-3.6,15.56-7.33l-2.61.79c-.76-.76,3.56-3.67,6.15-4.48-2.75,2.33.4,1.42,2.08,1.4,1.83-1.57-2.22.13-1.38-.93,2.31-1.95,7.66-5.15,9.26-5.48l-1.37,1.18c3.36-2.2,5.83-1.51,9.28-3.47,2.74-2.41,5.4-3,3.91-4.2,4.33-2.81,2.32.07,3.86-.59,1.71-1.9,8.25-5,9.5-4.73.58-1.82,3.7-3.39,6.66-4.86s5.75-2.81,5.62-4l4.3-1.3c-.2-.56-.18-2.1,2.61-4.24,3.09-1.33,3-.05,4.18-.14l.63-3.05a95.15,95.15,0,0,0,13.2-8.59,84.89,84.89,0,0,0,13.48-12.77c.55-.69,1.09-1.37,1.64-2.08l.85-1.18c.35-.47.69-1,1-1.52.68-1,1.31-2.11,1.89-3.2s1.1-2.21,1.62-3.33a31.79,31.79,0,0,0,2.06-7,29.53,29.53,0,0,0,.27-7.15,24.58,24.58,0,0,0-1.64-6.89,30.18,30.18,0,0,0-3.41-6.17,40,40,0,0,0-10.48-9.46c-.46-.26-.94-.5-1.44-.74l-1.28-.59c-.73-.35-1.44-.63-2.15-.9l-2.18-.82-2.17-.71c-2.93-.92-5.84-1.62-8.77-2.28-5.83-1.18-11.76-2.2-17.38-3l1.29-.11c-1.86-.33-3.72-.69-5.58-1l-5.56-.78,4,.84,2,.43,2,.51c-2.49-.1-4.4.21-6.74-.05-12.09-2-28.22-2.88-42.67-.72-9.14,3.28-6.44-1.7-15.19,1.05.73-.31,1-.69,1.64-1a191.64,191.64,0,0,0-23.9,5.89c.71-2.6-6.14,1-5.49-.37l-.63,1.11c-2.2-.26-7.16.41-6.58-.42l-3.93,2-.54-.94c-2.75.5-7,1.47-11,2.22s-7.71,1.17-9.35.48c-13.21,4.34-34.43,8.88-51.17,13-2.12,1.44-7,2.79-10.73,3.93l-4.36-.06c-3.76,1.42-7.4,4.08-11.19,4.34,0-.14.1-.28.33-.42-3.83,1.36-7.7,1.84-11,4-4.27,1.21-8.58,1.84-7.61.36.08,1-2.19,1.63-4.48,2s-4.6.47-4.6.47-13.74,3.84-34.93,10.5-49.82,16.26-79.69,27.4S237.3,441,210.79,453s-48.42,23.22-60,31.25c-1.31,1.64-5.77,4.3-3.49,4.6-3.48,1.93-5.86,1.05-6.16,2.27,5.21-1.56-.49,3,4.83,2.06l-3,1.58c-.35.93,3.88-2.59,3.64-1.07l.13-2.09c2.62-.84,4.15-1.08,5.29-.88,2.07-1.7,2.57-4.68,8.66-6.09l-1.52.77c4.58-2,3.3-.11,4.38-.24l-1,.43,4.25-.8c-3.18.68-7.43,4.16-4.93,3,5.68-1.87-1.61.19,2.42-1.78,2.51-1.18,2.19,0,2.3.62l4.56-2c.18.87-3.06,1.25-.85,1.29l5.43-3.31c1.93,1.57,5.88-3.63,9.33-2.84-4,2.23.66.53.27,1.46l10.16-4.38c1.08-.12-2.42,1.74-.92,1,2.16-.24,3-1.81,4-2.22,1.12.19,7.62-3.18,7.89-1.72,7.31-1.94,2.22-2.91,9-4.78,1.18.47-5.06,2.29-1.84,2l6.59-3a5,5,0,0,1-3.36,2.7c18.6-6.29,30.12-5.86,46.34-13.46,2.73.07-1.44,1.31-2.86,2.61,11.56-6,17.81-4.43,28.06-8.45l-.13-.88c15.31-2.92,32.07-10.82,48.77-15.59l-2.15.13c2-1.6,5.57-3,8.12-4.28.56.27-1.32,2.44,3.3.42-1.08.06-3.19.46-2.74-.15,7.4-1.41,18.46-4.83,30.64-8.63s25.48-8,37.28-11.14c31.27-10.55,66.12-18.66,97.31-26.36-4.76,1.16-3.22-1.39.5-1.73,10.63,1.27,17-4.38,27.58-3.94,9-2.37,17.8-3.32,26.34-4.33S580,373,588.4,370.78l.42,1c2.57.24,3.19-.52,5.84-.86l0,.3c6.28-.07,13.78-1.46,17.35-1l.21-1.16c3.69-.13,1.92.85,5.69.19l-.11.57,4.39-1c-.46,1.92,10.25.56,13,1.84h1.92l2.21.11c1.55.1,3.33.11,5.07.35a50.29,50.29,0,0,1,10.44,2.09,4.72,4.72,0,0,0,1.78,1.13c.43.22.92.45,1.46.68s1.13.47,1.67.75,1.18.52,1.72.8,1.1.56,1.59.85.44.32.52.42a.69.69,0,0,1,.05.24,1.22,1.22,0,0,1,.65.44,1,1,0,0,1,.09.92,1.85,1.85,0,0,1-.26.5,28.43,28.43,0,0,1-2.42,3,60.89,60.89,0,0,1-6.82,6.34l1,.84c-.83.77-1.71,1.53-2.59,2.28-.14-.25-.6-.08-.28-.52-1.52.27-3,1.6-4.56,3s-3.1,2.83-4.55,3.29c2.18-.09,2.17-1.32,3.83-2.5,2.7-1.26,1.27,1.46-2.4,3.27l-.1-.28c-.61.72-1.23,1.43-1.86,2.15-.83-.67-3.17.35-4-.31-9.87,6.85-16.26,12.67-27.68,18.55.61-1.63-7.95,4.72-6.64,1.73-6.44,4.35,1.89.8-.55,3.72-1.92,1-3.67,2.56-4.36,2.09.67-.89-2.13-.24-.66-1.22l-4.51,2.56c-.51.09.38-.68.82-1.06-8.82,5.93-17.25,7.45-25.26,12.71-.32,1,3.47-1.49,3.17-.54-8,5.56-8.17,2.6-15.78,7.44l1.24-1.7c-2.31,1.87-3.08,3.19-7.72,4.53-1.25-.7,3.24-2.61,5.07-4.1-3,1.39-10.3,5.22-7.57,5.09-3.38,2-5.12,1.7-7.17,2.32.06.29,3.65-.86,1.8.61-5.11,1.69-12.58,5.21-18.55,7.87-.07-.29-.67-.49-.21-.86C520.63,463.82,520,461.23,513.62,464.54Z" transform="translate(-141.12 -337.64)"/>
    <path class="a" d="M516.94,561.8l-2.65.32c0,.25,0,.57-1.18,1.07Z" transform="translate(-141.12 -337.64)"/>
    <path class="a" d="M383,580.72c-.58.12-1.14.21-1.69.37A3.94,3.94,0,0,0,383,580.72Z" transform="translate(-141.12 -337.64)"/>
    <path class="a" d="M347.24,574.7c1.69,1.16.76-.08.38-.87C347.34,573.88,347.08,574.05,347.24,574.7Z" transform="translate(-141.12 -337.64)"/>
    <path class="a" d="M586.42,544.85c-.43.2-.67.41-.55.63C586.44,545.15,586.54,545,586.42,544.85Z" transform="translate(-141.12 -337.64)"/>
    <path class="a" d="M779.29,503.49h-.81A2.36,2.36,0,0,0,779.29,503.49Z" transform="translate(-141.12 -337.64)"/>
    <path class="a" d="M768.23,504.13a17,17,0,0,0-2.13.66A7.16,7.16,0,0,0,768.23,504.13Z" transform="translate(-141.12 -337.64)"/>
    <path class="a" d="M539.6,554.72a6.67,6.67,0,0,0-2,.76A4.92,4.92,0,0,0,539.6,554.72Z" transform="translate(-141.12 -337.64)"/>
    <path class="a" d="M763.94,505.54l-2.71.49c0,.08,0,.14,0,.23Z" transform="translate(-141.12 -337.64)"/>
    <path class="a" d="M782.7,502.86c-1.06.2-2.48.52-3.41.63A8.47,8.47,0,0,0,782.7,502.86Z" transform="translate(-141.12 -337.64)"/>
    <path class="a" d="M657,528.38c-.08,0-.18,0-.28.09C654.68,529.41,656,528.92,657,528.38Z" transform="translate(-141.12 -337.64)"/>
    <path class="a" d="M752.65,510.15l-.37,0-.71.49Z" transform="translate(-141.12 -337.64)"/>
    <path class="a" d="M794.39,500.64a5.1,5.1,0,0,0-1.3.52l1.55-.22A.49.49,0,0,1,794.39,500.64Z" transform="translate(-141.12 -337.64)"/>
    <path class="a" d="M697.68,521.3c.66-.59.88-.94.86-1.16C697.65,520.35,697.12,520.67,697.68,521.3Z" transform="translate(-141.12 -337.64)"/>
  </g>
  <g>
    <path class="b" d="M397.05,350.64q25.36,0,40.52,17.94T448.69,412q-4,25.5-24.88,43.43t-46.2,17.93H309.43a7.65,7.65,0,0,0-5.1,2.05,7.82,7.82,0,0,0-2.8,4.77L300.45,487h75q3,0,11.17-6.82h51.27l-9.72,61.36H237.27L247,480.19q4-25.5,24.81-43.43t46.27-17.93h68.18a7.65,7.65,0,0,0,5.15-2,7.84,7.84,0,0,0,2.75-4.84,5.77,5.77,0,0,0-1.21-4.84,5.61,5.61,0,0,0-4.53-2H320.23q-3,0-11.17,6.82H257.79q4-25.5,24.81-43.43t46.27-17.94Z" transform="translate(-141.12 -337.64)"/>
    <path class="b" d="M544.08,541.55H489.53L504.2,449l-15.34,10.77H461.58l7.52-47.45,36.51-25.64q9.52-6.67,11.79-21l2.37-15h54.55Z" transform="translate(-141.12 -337.64)"/>
    <path class="b" d="M738.72,350.64q25.37,0,40.52,17.94T790.36,412q-4,25.5-24.88,43.43t-46.2,17.93H651.1a7.65,7.65,0,0,0-5.1,2.05,7.82,7.82,0,0,0-2.8,4.77L642.12,487h75q3,0,11.17-6.82h51.27l-9.72,61.36H578.94l9.72-61.36q4-25.5,24.81-43.43t46.27-17.93h68.18a7.65,7.65,0,0,0,5.15-2,7.89,7.89,0,0,0,2.75-4.84,5.8,5.8,0,0,0-1.21-4.84,5.61,5.61,0,0,0-4.53-2H661.9q-3,0-11.17,6.82H599.45q4-25.5,24.82-43.43t46.27-17.94Z" transform="translate(-141.12 -337.64)"/>
  </g>
  <g>
    <path class="c" d="M434.58,549.05H228.49l11.09-70c3-18.72,12.16-34.85,27.32-47.94a85.34,85.34,0,0,1,17-11.57H249l1.38-8.68c3-18.71,12.15-34.84,27.32-47.93s32.4-19.75,51.17-19.75h68.18c19.14,0,34.7,6.92,46.25,20.58s15.84,30.28,12.8,49.45c-3,18.73-12.18,34.86-27.39,47.94a86.76,86.76,0,0,1-17.06,11.57h35Zm-188.53-15H421.77l7.34-46.36H389.29c-6.14,4.87-10.13,6.82-13.84,6.82H291.67L294.12,479a15.4,15.4,0,0,1,5.31-9.28,15.2,15.2,0,0,1,10-3.87h68.18c15.2,0,28.71-5.27,41.31-16.12s19.94-23.58,22.37-38.92c2.35-14.87-.74-27.11-9.45-37.41s-20.07-15.27-34.79-15.27H328.87c-15.28,0-28.82,5.26-41.37,16.1C277.37,383,270.67,393,267.17,404.51h39.22c6.14-4.88,10.14-6.82,13.84-6.82h68.18a13.11,13.11,0,0,1,13.14,15.49,15.68,15.68,0,0,1-15.3,13.15H318.07c-15.28,0-28.81,5.26-41.37,16.1s-19.88,23.6-22.3,38.93Z" transform="translate(-141.12 -337.64)"/>
    <path class="c" d="M550.48,549.05H480.75L494,465.27l-2.79,2H452.8L462.19,408l39.12-27.46c4.65-3.27,7.49-8.51,8.68-16l3.38-21.32H583.1Zm-52.16-15h39.35l27.86-175.9H526.18l-1.38,8.67c-1.83,11.58-6.84,20.32-14.87,26L476,416.59l-5.64,35.64h16.12l27.89-19.58Z" transform="translate(-141.12 -337.64)"/>
    <path class="c" d="M776.25,549.05H570.16l11.09-70c3-18.72,12.15-34.85,27.32-47.94a85.06,85.06,0,0,1,17-11.57H590.67l1.38-8.68c3-18.71,12.15-34.84,27.31-47.93s32.4-19.75,51.18-19.75h68.18c19.14,0,34.7,6.92,46.25,20.58s15.84,30.28,12.8,49.45c-3,18.73-12.19,34.86-27.4,47.94a86.41,86.41,0,0,1-17,11.57h35Zm-188.53-15H763.44l7.34-46.36H731c-6.14,4.87-10.14,6.82-13.84,6.82H633.34L635.79,479a15.4,15.4,0,0,1,5.31-9.28,15.2,15.2,0,0,1,10-3.87h68.18c15.19,0,28.71-5.27,41.31-16.12s19.93-23.58,22.36-38.92c2.36-14.87-.73-27.11-9.44-37.41s-20.07-15.27-34.79-15.27H670.54c-15.29,0-28.82,5.26-41.37,16.1C619,383,612.33,393,608.84,404.51h39.22c6.14-4.88,10.13-6.82,13.84-6.82h68.18a13.11,13.11,0,0,1,13.14,15.49,15.7,15.7,0,0,1-15.3,13.15H659.74c-15.28,0-28.82,5.26-41.37,16.1s-19.88,23.6-22.31,38.93Z" transform="translate(-141.12 -337.64)"/>
  </g>
  <polygon class="d" points="103.46 198.85 114.78 127.36 132.59 103.36 164.12 87.36 249.12 87.36 258.1 74.86 253.08 62.35 176.08 62.35 166.05 68.86 123.55 68.86 130.22 48.85 155.94 25.36 181.13 17.86 265.13 17.86 292.51 34.35 303.42 63.35 293.4 101.36 263.52 125.86 234.23 130.85 165.23 130.85 156.12 137.85 153.51 154.35 235.51 154.35 248.19 146.85 290.19 146.85 282.2 197.35 103.46 198.85"/>
  <polygon class="e" points="176.08 62.35 253.08 62.35 258.1 74.86 249.12 87.36 164.12 87.36 132.59 103.36 131.66 104.61 289.44 104.61 293.4 101.36 303.42 63.35 292.51 34.35 265.13 17.86 181.13 17.86 155.94 25.36 130.22 48.85 123.55 68.86 166.05 68.86 176.08 62.35"/>
  <polygon class="f" points="324.29 117.86 331.02 75.36 371.3 48.35 381.47 18.86 422.47 18.86 393.88 199.35 351.88 199.35 367.72 99.36 340.87 117.36 324.29 117.86"/>
  <polygon class="g" points="359.89 104.61 367.72 99.36 366.89 104.61 408.89 104.61 422.47 18.86 381.47 18.86 371.3 48.35 331.02 75.36 326.39 104.61 359.89 104.61"/>
  <polygon class="h" points="445.46 198.85 456.78 127.36 474.58 103.36 506.12 87.36 591.12 87.36 600.1 74.86 595.08 62.35 518.08 62.35 508.05 68.86 465.55 68.86 472.22 48.85 497.94 25.36 523.13 17.86 607.13 17.86 634.51 34.35 645.42 63.35 635.4 101.36 605.52 125.86 576.23 130.85 507.23 130.85 498.12 137.85 495.51 154.35 577.51 154.35 590.2 146.85 632.2 146.85 624.2 197.35 445.46 198.85"/>
  <polygon class="i" points="518.08 62.35 595.08 62.35 600.1 74.86 591.12 87.36 506.12 87.36 474.58 103.36 473.66 104.61 631.44 104.61 635.4 101.36 645.42 63.35 634.51 34.35 607.13 17.86 523.13 17.86 497.94 25.36 472.22 48.85 465.55 68.86 508.05 68.86 518.08 62.35"/>
  <g>
    <path class="c" d="M397.05,350.64q25.36,0,40.52,17.94T448.69,412q-4,25.5-24.88,43.43t-46.2,17.93H309.43a7.65,7.65,0,0,0-5.1,2.05,7.82,7.82,0,0,0-2.8,4.77L300.45,487h75q3,0,11.17-6.82h51.27l-9.72,61.36H237.27L247,480.19q4-25.5,24.81-43.43t46.27-17.93h68.18a7.65,7.65,0,0,0,5.15-2,7.84,7.84,0,0,0,2.75-4.84,5.77,5.77,0,0,0-1.21-4.84,5.61,5.61,0,0,0-4.53-2H320.23q-3,0-11.17,6.82H257.79q4-25.5,24.81-43.43t46.27-17.94Zm-69.91,10.91q-20.86,0-38,14.8T270.42,401.1h36q8.18-6.83,15.54-6.82h68.18q7.5,0,11.8,5.11T405.06,412a20.49,20.49,0,0,1-7.12,12.61,20,20,0,0,1-13.42,5.11H316.34q-20.86,0-38,14.8T257.9,480.19l-8,50.45H419l6.27-39.54h-36q-8.17,6.81-15.54,6.82h-85.9l2.8-17.73a20.46,20.46,0,0,1,7.17-12.55,20,20,0,0,1,13.37-5.18h68.18q20.73,0,37.93-14.79T437.78,412q3.32-20.86-9.21-35.66t-33.25-14.8Z" transform="translate(-141.12 -337.64)"/>
    <path class="c" d="M544.08,541.55H489.53L504.2,449l-15.34,10.77H461.58l7.52-47.45,36.51-25.64q9.52-6.67,11.79-21l2.37-15h54.55Zm17.6-180H529l-.65,4.09q-3.07,19.51-17.21,29.46l-31.9,22.36-5,31.37h12.55l31.88-22.23-16.48,104H534.9Z" transform="translate(-141.12 -337.64)"/>
    <path class="c" d="M738.72,350.64q25.37,0,40.52,17.94T790.36,412q-4,25.5-24.88,43.43t-46.2,17.93H651.1a7.65,7.65,0,0,0-5.1,2.05,7.82,7.82,0,0,0-2.8,4.77L642.12,487h75q3,0,11.17-6.82h51.27l-9.72,61.36H578.94l9.72-61.36q4-25.5,24.81-43.43t46.27-17.93h68.18a7.65,7.65,0,0,0,5.15-2,7.89,7.89,0,0,0,2.75-4.84,5.8,5.8,0,0,0-1.21-4.84,5.61,5.61,0,0,0-4.53-2H661.9q-3,0-11.17,6.82H599.45q4-25.5,24.82-43.43t46.27-17.94Zm-69.91,10.91q-20.87,0-38,14.8T612.09,401.1h36q8.17-6.83,15.54-6.82h68.18q7.49,0,11.8,5.11T746.73,412a20.49,20.49,0,0,1-7.12,12.61,20,20,0,0,1-13.42,5.11H658q-20.87,0-38,14.8t-20.45,35.66l-8,50.45H760.66l6.27-39.54h-36q-8.17,6.81-15.54,6.82H629.48l2.81-17.73a20.46,20.46,0,0,1,7.17-12.55,20,20,0,0,1,13.37-5.18H721q20.72,0,37.93-14.79T779.45,412q3.31-20.86-9.21-35.66T737,361.55Z" transform="translate(-141.12 -337.64)"/>
  </g>
  <g>
    <path class="j" d="M508.86,580.39H528l-.56,6.37h6.36l-.55,6.36h6.36l-2.79,31.81H524.05l1.11-12.72H506.08L505,624.93H492.24L495,593.12h6.36l.56-6.36h6.36Zm5.81,6.37-.56,6.36h-6.36l-1.12,12.72h19.09l1.11-12.72h-6.36l.56-6.36Z" transform="translate(-141.12 -337.64)"/>
    <path class="j" d="M557.69,580.39h38.18l-.56,6.37h6.36L600,605.84H587.28l-.56,6.37h6.36l-.55,6.36h6.36l-.56,6.36H579.25l.55-6.36h-6.36l.56-6.36h-6.37l-1.11,12.72H553.8Zm12.17,6.37-1.67,19.08h12.73l.55-6.36h6.37L589,586.76Z" transform="translate(-141.12 -337.64)"/>
    <path class="j" d="M632,580.39h25.45l-.56,6.37h6.36l-.55,6.36H650l.56-6.36H637.78l-.55,6.36h-6.36l-1.68,19.09h6.37l-.56,6.36h12.73l.55-6.36H661l-.56,6.36h-6.36l-.56,6.36H628.08l.56-6.36h-6.36l.55-6.36h-6.36l1.67-19.09h6.36l.56-6.36h6.36Z" transform="translate(-141.12 -337.64)"/>
    <path class="j" d="M693.54,580.39h19.08l-.55,6.37h6.36l-.56,6.36h6.37l-2.79,31.81H708.73l1.11-12.72H690.75l-1.11,12.72H676.92l2.78-31.81h6.36l.56-6.36H693Zm5.8,6.37-.55,6.36h-6.37l-1.11,12.72H710.4l1.11-12.72h-6.36l.56-6.36Z" transform="translate(-141.12 -337.64)"/>
    <path class="j" d="M742.37,580.39h31.81l-.55,6.37H780l-.56,6.36h6.37l-1.68,19.09h-6.36l-.55,6.36h-6.37l-.55,6.36H738.47Zm12.17,6.37-2.78,31.81h12.72l.56-6.36h6.36l1.67-19.09h-6.36l.56-6.36Z" transform="translate(-141.12 -337.64)"/>
    <path class="j" d="M803.93,580.39h44.54l-.56,6.37H816.1L815,599.48h25.45l-.56,6.36H814.43l-1.11,12.73h31.81l-.56,6.36H800Z" transform="translate(-141.12 -337.64)"/>
  </g>
</svg>
